<svg xmlns="http://www.w3.org/2000/svg" xmlns:xlink="http://www.w3.org/1999/xlink" width="500" zoomAndPan="magnify" viewBox="0 0 375 374.999991" height="500" preserveAspectRatio="xMidYMid meet" version="1.0"><path fill="#ffffff" d="M 104.0625 132.488281 C 101.617188 133.386719 99.292969 135.425781 98.03125 137.707031 L 96.808594 139.90625 L 96.808594 175.777344 C 96.808594 210.015625 96.847656 211.726562 97.582031 213.074219 C 99.050781 215.84375 100.273438 217.109375 102.757812 218.332031 L 105.285156 219.59375 L 184.648438 219.59375 L 184.648438 212.257812 L 154.484375 212.257812 C 125.015625 212.257812 124.238281 212.257812 122.691406 211.441406 C 121.792969 210.992188 120.570312 209.851562 119.960938 208.914062 L 118.820312 207.203125 L 118.695312 176.714844 C 118.613281 156.742188 118.738281 145.65625 119.023438 144.636719 C 119.550781 142.558594 120.773438 141.089844 122.730469 140.113281 C 124.238281 139.335938 125.21875 139.296875 154.445312 139.296875 L 184.605469 139.296875 L 184.726562 135.628906 L 184.851562 131.960938 L 145.109375 132 C 115.761719 132 105.042969 132.164062 104.0625 132.488281 Z M 104.0625 132.488281 " fill-opacity="1" fill-rule="nonzero"/><path fill="#ffffff" d="M 192.308594 135.464844 C 192.226562 137.585938 192.351562 139.050781 192.59375 139.09375 C 192.839844 139.175781 193.492188 139.335938 194.0625 139.460938 C 195.773438 139.824219 197.773438 141.414062 198.667969 143.167969 C 199.523438 144.757812 199.523438 145.289062 199.648438 174.554688 C 199.726562 195.054688 199.648438 204.960938 199.320312 206.386719 C 198.710938 209.199219 197.199219 210.914062 194.511719 211.808594 L 192.308594 212.582031 L 192.269531 216.089844 L 192.1875 219.59375 L 236.617188 219.59375 C 273.136719 219.59375 281.535156 219.472656 283.734375 219.023438 C 294.945312 216.617188 303.179688 205.574219 302.28125 194.160156 C 301.628906 185.96875 296.617188 178.34375 289.808594 175.082031 C 288.257812 174.351562 286.996094 173.617188 286.996094 173.453125 C 286.957031 173.332031 287.769531 172.71875 288.707031 172.148438 C 291.234375 170.683594 294.820312 166.644531 296.289062 163.671875 C 299.46875 157.230469 299.46875 150.21875 296.332031 143.902344 C 293.597656 138.398438 288.054688 133.996094 282.023438 132.570312 C 279.78125 132.039062 273.257812 131.960938 235.921875 131.960938 L 192.433594 131.960938 Z M 232.335938 140.113281 C 233.234375 140.558594 234.457031 141.699219 235.066406 142.636719 L 236.207031 144.351562 L 236.207031 207.203125 L 235.066406 208.914062 C 232.132812 213.359375 225.367188 213.316406 222.757812 208.832031 L 221.738281 207.082031 L 221.738281 144.390625 L 222.71875 142.800781 C 224.714844 139.5 228.871094 138.359375 232.335938 140.113281 Z M 271.140625 140.84375 C 274.402344 142.433594 277.214844 145.371094 278.84375 148.835938 C 283.082031 157.882812 278.027344 168.644531 268.246094 171.332031 L 265.761719 172.027344 L 265.761719 179.566406 L 267.308594 179.851562 C 273.339844 180.992188 278.722656 186.457031 280.027344 192.894531 C 281.695312 201.089844 276.359375 209.566406 268.207031 211.6875 C 264.902344 212.542969 262.988281 212.257812 261.03125 210.546875 C 258.261719 208.101562 258.421875 210.21875 258.421875 175.777344 C 258.421875 141.824219 258.300781 143.535156 260.746094 141.292969 C 262.621094 139.539062 263.394531 139.253906 266.003906 139.417969 C 267.796875 139.5 269.222656 139.90625 271.140625 140.84375 Z M 271.140625 140.84375 " fill-opacity="1" fill-rule="nonzero"/><path fill="#ffffff" d="M 152.078125 147.40625 C 142.785156 149.773438 134.878906 156.863281 131.660156 165.707031 C 130.394531 169.171875 129.496094 174.554688 129.785156 176.835938 C 129.90625 177.609375 130.070312 179.199219 130.230469 180.421875 C 130.597656 183.601562 132.554688 188.65625 134.675781 191.835938 C 138.34375 197.339844 143.804688 201.457031 150.328125 203.617188 C 153.097656 204.554688 154.15625 204.675781 159.171875 204.675781 C 164.550781 204.714844 165.082031 204.636719 168.464844 203.414062 C 176.578125 200.558594 182.445312 195.21875 185.871094 187.636719 C 187.621094 183.804688 188.316406 180.464844 188.316406 175.734375 C 188.316406 167.664062 185.625 161.101562 179.960938 155.398438 C 174.089844 149.527344 168.382812 147.039062 159.988281 146.796875 C 156.15625 146.675781 154.445312 146.796875 152.078125 147.40625 Z M 156.523438 157.191406 C 156.523438 159.839844 156.398438 162.082031 156.277344 162.203125 C 155.542969 162.976562 147.71875 160.042969 145.109375 158.046875 C 144.089844 157.273438 144.089844 157.273438 144.90625 156.621094 C 147.105469 154.824219 155.257812 151.648438 156.238281 152.21875 C 156.398438 152.296875 156.523438 154.539062 156.523438 157.191406 Z M 169.769531 154.582031 C 171.359375 155.355469 172.988281 156.292969 173.398438 156.621094 C 174.210938 157.230469 174.210938 157.230469 173.398438 157.882812 C 171.890625 159.105469 166.101562 161.632812 163.980469 162.039062 L 161.820312 162.40625 L 161.820312 152.011719 L 164.390625 152.585938 C 165.773438 152.910156 168.21875 153.808594 169.769531 154.582031 Z M 142.335938 162.652344 C 145.230469 164.730469 149.675781 166.605469 153.261719 167.296875 L 156.523438 167.949219 L 156.523438 173.128906 L 135.285156 173.128906 L 135.570312 171.578125 C 136.058594 169.050781 137.324219 165.707031 138.667969 163.425781 C 139.402344 162.285156 140.097656 161.308594 140.21875 161.308594 C 140.339844 161.308594 141.277344 161.917969 142.335938 162.652344 Z M 180.570312 165.382812 C 181.628906 167.460938 182.039062 168.765625 182.773438 171.984375 L 183.015625 173.128906 L 161.820312 173.128906 L 161.820312 167.992188 L 164.796875 167.339844 C 168.996094 166.402344 171.890625 165.21875 175.109375 163.140625 L 177.921875 161.308594 L 178.695312 162.246094 C 179.101562 162.734375 179.960938 164.160156 180.570312 165.382812 Z M 156.523438 180.992188 L 156.523438 183.519531 L 153.21875 184.214844 C 149.59375 184.988281 144.90625 187.027344 142.011719 189.105469 C 139.972656 190.574219 140.257812 190.65625 138.382812 187.554688 C 137.285156 185.722656 136.019531 182.339844 135.570312 179.933594 L 135.285156 178.425781 L 156.523438 178.425781 Z M 182.773438 179.527344 C 182.039062 182.789062 181.628906 184.09375 180.570312 186.171875 C 179.960938 187.394531 179.101562 188.820312 178.695312 189.351562 L 177.921875 190.246094 L 176.003906 188.902344 C 173.152344 186.863281 168.710938 184.949219 165.082031 184.253906 L 161.820312 183.601562 L 161.820312 178.425781 L 183.015625 178.425781 Z M 156.523438 194.363281 C 156.523438 199.171875 156.523438 199.214844 155.585938 199.214844 C 153.34375 199.214844 147.230469 196.769531 144.90625 194.933594 C 144.089844 194.28125 144.089844 194.28125 145.109375 193.507812 C 147.675781 191.550781 155.136719 188.699219 156.238281 189.308594 C 156.398438 189.390625 156.523438 191.671875 156.523438 194.363281 Z M 167.160156 190.410156 C 169.566406 191.265625 174.050781 193.792969 174.050781 194.324219 C 174.050781 194.648438 170.054688 197.011719 168.261719 197.789062 C 167.40625 198.113281 165.613281 198.644531 164.265625 198.96875 L 161.820312 199.539062 L 161.820312 189.023438 L 163.167969 189.269531 C 163.859375 189.429688 165.652344 189.921875 167.160156 190.410156 Z M 167.160156 190.410156 " fill-opacity="1" fill-rule="nonzero"/></svg>