<svg xmlns="http://www.w3.org/2000/svg" xmlns:xlink="http://www.w3.org/1999/xlink" width="500" zoomAndPan="magnify" viewBox="0 0 375 374.999991" height="500" preserveAspectRatio="xMidYMid meet" version="1.0"><defs><clipPath id="09d2393c40"><path d="M 35.535156 35.535156 L 339.285156 35.535156 L 339.285156 339.285156 L 35.535156 339.285156 Z M 35.535156 35.535156 " clip-rule="nonzero"/></clipPath></defs><g clip-path="url(#09d2393c40)"><path fill="#ffffff" d="M 35.535156 35.535156 L 339.460938 35.535156 L 339.460938 339.460938 L 35.535156 339.460938 Z M 35.535156 35.535156 " fill-opacity="1" fill-rule="evenodd"/></g><path fill="#ffffff" d="M 326.050781 187.5 C 326.050781 142.199219 289.328125 105.476562 244.03125 105.476562 C 224.371094 105.476562 206.484375 112.355469 192.359375 123.886719 C 203.136719 134.289062 211.359375 147.3125 215.773438 162.039062 L 208.960938 162.039062 C 204.6875 148.949219 197.1875 137.398438 187.433594 128.128906 C 182.527344 132.804688 178.261719 138.007812 174.644531 143.738281 C 171.023438 149.46875 168.160156 155.554688 166.046875 162 L 159.234375 162 C 161.410156 154.769531 164.460938 147.933594 168.382812 141.488281 C 172.308594 135.042969 176.984375 129.191406 182.40625 123.941406 C 168.3125 112.53125 150.511719 105.472656 130.964844 105.472656 C 85.667969 105.472656 48.941406 142.199219 48.941406 187.496094 C 48.941406 232.796875 85.664062 269.519531 130.964844 269.519531 C 150.511719 269.519531 168.3125 262.464844 182.40625 251.050781 C 171.710938 240.679688 163.625 227.636719 159.234375 212.996094 L 166.046875 212.996094 C 168.160156 219.4375 171.023438 225.523438 174.644531 231.253906 C 178.261719 236.988281 182.527344 242.191406 187.433594 246.863281 C 197.1875 237.59375 204.6875 226.046875 208.960938 212.957031 L 215.773438 212.957031 C 211.359375 227.679688 203.136719 240.707031 192.359375 251.109375 C 206.484375 262.636719 224.371094 269.515625 244.03125 269.515625 C 289.328125 269.519531 326.050781 232.796875 326.050781 187.5 Z M 326.050781 187.5 " fill-opacity="1" fill-rule="evenodd"/><path fill="#ffffff" d="M 265.769531 206.710938 L 271.433594 176.363281 L 278.59375 176.363281 L 279.34375 179.351562 C 280.625 177.855469 283.082031 176.363281 287.25 176.363281 L 285.007812 184.269531 C 282.976562 184.269531 279.128906 183.738281 276.671875 192.820312 L 274.105469 206.710938 Z M 156.019531 168.648438 L 164.273438 168.648438 L 162.578125 176.691406 L 167.023438 176.691406 L 165.542969 183.25 L 161.3125 183.25 L 158.980469 195.519531 C 158.558594 197.851562 158.769531 199.96875 163.53125 199.226562 L 163.003906 205.363281 C 161.203125 206.523438 158.769531 206.84375 156.863281 206.84375 C 154.960938 206.84375 148.71875 205.679688 150.308594 197.425781 Z M 191.78125 193.195312 C 192.734375 188.328125 194.957031 176.269531 180.464844 176.269531 C 167.128906 176.269531 165.4375 189.492188 165.121094 191.394531 C 164.804688 193.300781 164.59375 206.738281 178.875 206.738281 C 182.367188 206.84375 187.445312 206.417969 189.457031 205.359375 L 190.726562 199.121094 C 189.457031 199.433594 184.695312 199.859375 181.414062 199.859375 C 178.136719 199.859375 172.847656 200.074219 173.796875 193.195312 Z M 148.195312 183.460938 L 150.097656 177.324219 C 146.183594 175.84375 143.113281 176.160156 141.949219 176.160156 C 140.785156 176.160156 130.878906 176.039062 129.359375 183.355469 C 128.195312 188.964844 130.25 191.285156 132.214844 192.136719 C 135.390625 193.515625 137.191406 194.785156 138.882812 195.628906 C 140.980469 196.675781 140.59375 200.179688 137.824219 200.179688 C 136.554688 200.179688 131.054688 200.8125 126.929688 199.4375 L 125.765625 205.679688 C 129.574219 206.738281 132.640625 206.738281 135.5 206.738281 C 137.507812 206.738281 147.347656 207.269531 148.722656 198.167969 C 149.394531 193.730469 147.453125 191.710938 145.863281 190.765625 C 144.277344 189.703125 141.632812 188.222656 139.941406 187.480469 C 138.246094 186.742188 136.976562 183.886719 140.046875 183.039062 C 141.949219 182.828125 145.863281 182.828125 148.195312 183.460938 Z M 94.65625 206.738281 L 101.535156 170.128906 L 87.992188 170.128906 L 77.9375 192.347656 L 76.351562 170.128906 L 63.128906 170.128906 L 56.039062 206.738281 L 64.289062 206.738281 L 69.367188 180.285156 L 71.589844 206.738281 L 79.417969 206.738281 L 90.953125 180.921875 L 86.085938 206.738281 Z M 103.753906 177.21875 L 102.484375 183.777344 C 104.496094 183.570312 109.890625 182.722656 112.746094 182.828125 C 115.605469 182.933594 118.777344 182.511719 117.824219 187.058594 C 115.710938 187.273438 100.898438 184.941406 98.574219 197.636719 C 97.621094 203.882812 103.015625 207.054688 107.246094 206.84375 C 111.476562 206.632812 112.640625 206.101562 114.125 205.042969 L 115.179688 206.738281 L 122.902344 206.738281 L 126.183594 190.234375 C 127.03125 186.105469 128.402344 176.160156 114.546875 176.160156 C 112.007812 176.269531 109.152344 176.160156 103.753906 177.21875 Z M 237.488281 178.59375 C 235.371094 177.324219 233.894531 177.113281 231.140625 177.113281 C 228.390625 177.113281 222.25 179.742188 221.089844 187.164062 C 219.714844 195.945312 225.742188 200.28125 234.210938 197.425781 L 236.640625 204.832031 C 233.894531 206.101562 231.140625 206.738281 226.589844 206.738281 C 218.019531 206.738281 208.710938 199.121094 212.941406 183.671875 C 216.0625 172.289062 225.851562 168.121094 231.566406 168.332031 C 238.335938 168.585938 240.769531 170.871094 242.886719 173.199219 Z M 307.847656 179.863281 C 306.257812 178.699219 305.3125 176.269531 301.394531 176.269531 C 296.84375 176.269531 289.753906 175.421875 285.734375 189.175781 C 283.046875 198.367188 288.484375 206.738281 294.40625 206.738281 C 297.160156 206.632812 299.910156 205.46875 301.601562 204.304688 L 302.664062 206.738281 L 311.546875 206.738281 L 318.746094 168.226562 L 310.066406 168.226562 Z M 243.414062 177.21875 L 242.140625 183.777344 C 244.15625 183.570312 249.546875 182.722656 252.40625 182.828125 C 255.265625 182.933594 258.4375 182.511719 257.484375 187.058594 C 255.371094 187.273438 240.558594 184.941406 238.230469 197.636719 C 237.277344 203.882812 242.671875 207.054688 246.902344 206.84375 C 251.140625 206.632812 252.300781 206.101562 253.785156 205.042969 L 254.84375 206.738281 L 262.5625 206.738281 L 265.84375 190.234375 C 266.691406 186.105469 268.066406 176.160156 254.203125 176.160156 C 251.667969 176.269531 248.808594 176.160156 243.414062 177.21875 Z M 243.414062 177.21875 " fill-opacity="1" fill-rule="evenodd"/><path fill="#ffffff" d="M 174.324219 187.695312 L 184.589844 187.695312 C 185.117188 184.730469 184.164062 182.191406 180.886719 182.191406 C 177.605469 182.191406 175.277344 183.886719 174.324219 187.695312 Z M 116.453125 193.195312 C 115.074219 192.980469 112.007812 192.136719 109.363281 193.933594 C 106.714844 195.734375 105.976562 198.90625 108.726562 199.96875 C 111.375 200.984375 115.285156 199.226562 115.816406 196.472656 Z M 304.886719 192.242188 C 305.730469 189.492188 305.269531 186.058594 304.355469 184.839844 C 301.820312 181.453125 295.980469 184.128906 294.199219 190.765625 C 293.035156 195.101562 295.578125 198.378906 298.433594 198.378906 C 301.5 198.378906 303.40625 195.945312 304.886719 192.242188 Z M 256.113281 193.195312 C 254.734375 192.980469 251.667969 192.136719 249.023438 193.933594 C 246.378906 195.734375 245.636719 198.90625 248.390625 199.96875 C 251.039062 200.984375 254.945312 199.226562 255.476562 196.472656 Z M 256.113281 193.195312 " fill-opacity="1" fill-rule="evenodd"/><path fill="#ffffff" d="M 192.019531 206.738281 L 197.628906 176.691406 L 204.714844 176.691406 L 205.457031 179.652344 C 206.730469 178.171875 209.160156 176.691406 213.285156 176.691406 L 211.167969 184.625 C 209.160156 184.625 205.242188 183.992188 202.808594 192.980469 L 200.273438 206.738281 Z M 192.019531 206.738281 " fill-opacity="1" fill-rule="evenodd"/></svg>