<svg xmlns="http://www.w3.org/2000/svg" xmlns:xlink="http://www.w3.org/1999/xlink" width="500" zoomAndPan="magnify" viewBox="0 0 375 374.999991" height="500" preserveAspectRatio="xMidYMid meet" version="1.0"><defs><clipPath id="ed95890968"><path d="M 65.796875 150 L 309.546875 150 L 309.546875 225 L 65.796875 225 Z M 65.796875 150 " clip-rule="nonzero"/></clipPath></defs><g clip-path="url(#ed95890968)"><path fill="#ffffff" d="M 242.71875 153.230469 C 238.800781 151.769531 232.65625 150.179688 225.050781 150.179688 C 205.601562 150.179688 191.855469 160.007812 191.773438 174.070312 C 191.613281 184.410156 201.515625 190.234375 209 193.71875 C 216.691406 197.285156 219.261719 199.507812 219.222656 202.671875 C 219.183594 207.546875 213.078125 209.722656 207.457031 209.722656 C 199.644531 209.722656 195.40625 208.65625 188.875 205.917969 L 186.449219 204.769531 L 183.679688 221.019531 C 188.433594 222.957031 196.953125 224.660156 205.746094 224.820312 C 226.464844 224.820312 239.972656 215.078125 240.125 200.054688 C 240.285156 191.816406 234.984375 185.566406 223.6875 180.40625 C 216.871094 177.085938 212.605469 174.816406 212.605469 171.410156 C 212.605469 168.398438 216.25 165.234375 223.855469 165.234375 C 230.386719 165.113281 234.992188 166.542969 238.589844 167.964844 L 240.453125 168.792969 L 243.183594 153.148438 Z M 293.277344 151.527344 L 278.0625 151.527344 C 273.308594 151.527344 269.78125 152.796875 267.683594 157.511719 L 238.445312 223.785156 L 259.125 223.785156 L 263.292969 212.933594 L 288.523438 212.96875 C 289.152344 215.503906 290.933594 223.777344 290.933594 223.777344 L 309.195312 223.777344 Z M 163.765625 150.933594 L 183.457031 150.933594 L 171.136719 223.222656 L 151.445312 223.222656 L 163.765625 150.894531 Z M 113.695312 190.746094 L 115.710938 200.808594 L 135 151.527344 L 155.878906 151.527344 L 124.816406 223.664062 L 104.027344 223.664062 L 86.988281 162.578125 C 86.632812 161.515625 86.199219 160.792969 85.125 160.167969 C 79.382812 157.15625 72.925781 154.699219 65.796875 152.996094 L 66.035156 151.480469 L 97.804688 151.480469 C 102.085938 151.640625 105.570312 152.996094 106.757812 157.589844 L 113.695312 190.78125 Z M 268.90625 198.152344 L 276.792969 177.914062 C 276.671875 178.105469 278.414062 173.753906 279.402344 171.015625 L 280.75 177.230469 L 285.3125 198.109375 L 268.90625 198.109375 Z M 268.90625 198.152344 " fill-opacity="1" fill-rule="nonzero"/></g></svg>